# This file uses centimeters as units for non-parametric coordinates.

mtllib PuertaCrisC.mtl
g default
v 0.156344 8.763893 -10.526670
v 0.156344 0.272643 -10.526670
v -4.826304 0.272643 -10.526670
v -4.826304 8.763893 -10.526670
v -4.826304 8.819355 -10.468985
v -4.826304 0.217537 -10.468985
v 0.156344 0.217537 -10.468985
v 0.156344 8.819355 -10.468985
vn 0.000000 0.000000 -1.000000
vn 0.000000 0.000000 -1.000000
vn 0.000000 0.000000 -1.000000
vn 0.000000 0.000000 -1.000000
vn 0.000000 0.000000 1.000000
vn 0.000000 0.000000 1.000000
vn 0.000000 0.000000 1.000000
vn 0.000000 0.000000 1.000000
vn 0.000000 -0.722759 -0.691100
vn 0.000000 -0.722759 -0.691100
vn 0.000000 -0.722759 -0.691100
vn 0.000000 -0.722759 -0.691100
vn -1.000000 0.000000 -0.000000
vn -1.000000 0.000000 -0.000000
vn -1.000000 0.000000 -0.000000
vn -1.000000 0.000000 -0.000000
vn 0.000000 0.722759 -0.691100
vn 0.000000 0.722759 -0.691100
vn 0.000000 0.722759 -0.691100
vn 0.000000 0.722759 -0.691100
vn 1.000000 0.000000 0.000000
vn 1.000000 0.000000 0.000000
vn 1.000000 0.000000 0.000000
vn 1.000000 0.000000 0.000000
s off
g PuertaCrisC1:Object001
usemtl PuertaCrisC1:phong2SG
f 1//1 2//2 3//3 4//4
f 5//5 6//6 7//7 8//8
f 6//9 3//10 2//11 7//12
f 5//13 4//14 3//15 6//16
f 8//17 1//18 4//19 5//20
f 7//21 2//22 1//23 8//24
